<svg xmlns="http://www.w3.org/2000/svg" version="1.1" xmlns:xlink="http://www.w3.org/1999/xlink" xmlns:svgjs="http://svgjs.dev/svgjs" width="50" height="50"><svg width="50" height="50" viewBox="0 0 50 50" fill="none" xmlns="http://www.w3.org/2000/svg">
<rect x="27" width="50" height="4" rx="2" transform="rotate(90 27 0)" fill="#030712"></rect>
<rect x="5" y="23" width="44" height="4" rx="2" fill="#030712"></rect>
<path d="M1.77131 18C2.24015 18 2.68979 18.1862 3.02131 18.5178L8.08933 23.5858C8.87038 24.3668 8.87038 25.6332 8.08933 26.4142L3.02131 31.4822C2.68979 31.8138 2.24015 32 1.77131 32C0.196399 32 -0.59232 30.0959 0.521311 28.9822L3.08933 26.4142C3.87038 25.6332 3.87038 24.3668 3.08933 23.5858L0.521311 21.0178C-0.59232 19.9041 0.1964 18 1.77131 18Z" fill="#030712"></path>
<path d="M9.77131 18C10.2402 18 10.6898 18.1862 11.0213 18.5178L16.0893 23.5858C16.8704 24.3668 16.8704 25.6332 16.0893 26.4142L11.0213 31.4822C10.6898 31.8138 10.2402 32 9.77131 32C8.1964 32 7.40768 30.0959 8.52131 28.9822L12.5035 25L8.52131 21.0178C7.40768 19.9041 8.1964 18 9.77131 18Z" fill="#030712"></path>
<path d="M43.0916 18C43.5605 18 44.0101 18.1862 44.3416 18.5178L49.4096 23.5858C50.1907 24.3668 50.1907 25.6332 49.4096 26.4142L44.3416 31.4822C44.0101 31.8138 43.5605 32 43.0916 32C41.8138 32 41.0536 30.7466 41.407 29.6789C41.5736 29.1753 41.8416 28.6842 41.8416 28.1538L41.8416 25V21.8462C41.8416 21.3158 41.5736 20.8247 41.407 20.3211C41.0536 19.2534 41.8138 18 43.0916 18Z" fill="#030712"></path>
<path d="M30.9553 43.337C32.218 44.0446 33 45.3791 33 46.8265V50H17V46.8265C17 45.3791 17.782 44.0446 19.0447 43.337L24.0223 40.5478C24.6297 40.2075 25.3703 40.2075 25.9777 40.5478L30.9553 43.337Z" fill="#030712"></path>
<circle cx="25" cy="6" r="6" fill="#030712"></circle>
<circle cx="25" cy="6" r="3" fill="white"></circle>
</svg><style>@media (prefers-color-scheme: light) { :root { filter: none; } }
@media (prefers-color-scheme: dark) { :root { filter: none; } }
</style></svg>