<svg width="52" height="40" viewBox="0 0 52 40" fill="none" xmlns="http://www.w3.org/2000/svg">
<rect x="26" width="40" height="2" rx="1" transform="rotate(90 26 0)" fill="#030712"/>
<path d="M3.24516 20C3.24516 19.4477 3.69288 19 4.24516 19H46.2452C46.7974 19 47.2452 19.4477 47.2452 20C47.2452 20.5523 46.7974 21 46.2452 21H4.24516C3.69287 21 3.24516 20.5523 3.24516 20Z" fill="#030712"/>
<path d="M41.5609 16.3162C41.0752 15.8305 41.4192 15 42.1061 15C42.515 15 42.9073 15.1625 43.1964 15.4516L47.0377 19.2929C47.4282 19.6834 47.4282 20.3166 47.0377 20.7071L43.1964 24.5484C42.9073 24.8376 42.515 25 42.1061 25C41.4192 25 41.0752 24.1696 41.5609 23.6839L44.5377 20.7071C44.9282 20.3166 44.9282 19.6834 44.5377 19.2929L41.5609 16.3162Z" fill="#030712"/>
<path d="M45.5613 16.3161C45.0756 15.8304 45.4196 15 46.1064 15C46.5154 15 46.9076 15.1625 47.1968 15.4516L51.038 19.2929C51.4286 19.6834 51.4285 20.3166 51.038 20.7071L47.1968 24.5484C46.9076 24.8375 46.5154 25 46.1064 25C45.4196 25 45.0756 24.1695 45.5613 23.6839L48.538 20.7071C48.9286 20.3166 48.9285 19.6834 48.538 19.2929L45.5613 16.3161Z" fill="#030712"/>
<path d="M1.24513 15H7.41671C7.94714 15 8.45585 15.2107 8.83092 15.5858L12.538 19.2929C12.9286 19.6834 12.9286 20.3166 12.538 20.7071L8.83092 24.4142C8.45585 24.7893 7.94714 25 7.41671 25H1.24513C0.138059 25 -0.416366 23.6615 0.366454 22.8787L2.53803 20.7071C2.92855 20.3166 2.92855 19.6834 2.53803 19.2929L0.366452 17.1213C-0.416368 16.3385 0.138059 15 1.24513 15Z" fill="#030712"/>
<path d="M2.95224 16C3.13978 16 3.31963 16.0745 3.45224 16.2071L6.53803 19.2929C6.92855 19.6834 6.92855 20.3166 6.53803 20.7071L3.45224 23.7929C3.31963 23.9255 3.13978 24 2.95224 24C2.32228 24 2.00679 23.2383 2.45224 22.7929L4.55884 20.6863C4.93787 20.3073 4.93787 19.6927 4.55884 19.3137L2.45224 17.2071C2.00679 16.7617 2.32228 16 2.95224 16Z" fill="white"/>
<path d="M6.95175 16C7.13928 16 7.31914 16.0745 7.45175 16.2071L10.5375 19.2929C10.9281 19.6834 10.9281 20.3166 10.5375 20.7071L7.45175 23.7929C7.31914 23.9255 7.13928 24 6.95175 24C6.32178 24 6.00629 23.2383 6.45175 22.7929L8.55835 20.6863C8.93738 20.3073 8.93738 19.6927 8.55835 19.3137L6.45175 17.2071C6.00629 16.7617 6.32178 16 6.95175 16Z" fill="white"/>
<path d="M27 32C28.1046 32 29 32.8954 29 34V40H21V34C21 32.8954 21.8954 32 23 32H27Z" fill="#030712"/>
<path d="M29 36C30.1046 36 31 36.8954 31 38V40H19V38C19 36.8954 19.8954 36 21 36H29Z" fill="#030712"/>
<circle cx="25" cy="4" r="4" fill="#030712"/>
<circle cx="25" cy="4" r="2" fill="white"/>
</svg>
