<svg width="52" height="32" viewBox="0 0 52 32" fill="none" xmlns="http://www.w3.org/2000/svg">
<rect x="27" width="32" height="3" rx="1.5" transform="rotate(90 27 0)" fill="#030712"/>
<path d="M8.9998 16C8.9998 15.1716 9.67138 14.5 10.4998 14.5H39.4998C40.3282 14.5 40.9998 15.1716 40.9998 16C40.9998 16.8284 40.3282 17.5 39.4998 17.5H10.4998C9.67138 17.5 8.9998 16.8284 8.9998 16Z" fill="#030712"/>
<path d="M35.5792 12.5794C34.9963 11.9965 35.4091 11 36.2334 11C36.7241 11 37.1947 11.1949 37.5418 11.542L41.2927 15.2929C41.6832 15.6834 41.6832 16.3166 41.2927 16.7071L37.5418 20.458C37.1947 20.8051 36.7241 21 36.2334 21C35.4091 21 34.9963 20.0035 35.5792 19.4206L38.9998 16L35.5792 12.5794Z" fill="#030712"/>
<path d="M40.5792 12.5794C39.9963 11.9965 40.4091 11 41.2334 11C41.7241 11 42.1947 11.1949 42.5418 11.542L46.2927 15.2929C46.6832 15.6834 46.6832 16.3166 46.2927 16.7071L42.5418 20.458C42.1947 20.8051 41.7241 21 41.2334 21C40.4091 21 39.9963 20.0035 40.5792 19.4206L43.9998 16L40.5792 12.5794Z" fill="#030712"/>
<path d="M45.5792 12.5794C44.9963 11.9965 45.4091 11 46.2334 11C46.7241 11 47.1947 11.1949 47.5418 11.542L51.2927 15.2929C51.6832 15.6834 51.6832 16.3166 51.2927 16.7071L47.5418 20.458C47.1947 20.8051 46.7241 21 46.2334 21C45.4091 21 44.9963 20.0035 45.5792 19.4206L48.9998 16L45.5792 12.5794Z" fill="#030712"/>
<path d="M1.41401 14.4142C0.154084 13.1543 1.04642 11 2.82823 11H10.1714C10.7018 11 11.2105 11.2107 11.5856 11.5858L15.2927 15.2929C15.6832 15.6834 15.6832 16.3166 15.2927 16.7071L11.5856 20.4142C11.2105 20.7893 10.7018 21 10.1714 21H2.82823C1.04642 21 0.154086 18.8457 1.41402 17.5858L2.9998 16L1.41401 14.4142Z" fill="#030712"/>
<path d="M3.88561 12.5C4.27878 12.5 4.65585 12.6562 4.93386 12.9342L7.29256 15.2929C7.68308 15.6834 7.68308 16.3166 7.29256 16.7071L4.93386 19.0658C4.65585 19.3438 4.27878 19.5 3.88561 19.5C3.00512 19.5 2.56417 18.4355 3.18676 17.8129L4.99958 16L3.18676 14.1871C2.56417 13.5645 3.00512 12.5 3.88561 12.5Z" fill="white"/>
<path d="M8.88576 12.5C9.27892 12.5 9.65599 12.6562 9.934 12.9342L12.2927 15.2929C12.6832 15.6834 12.6832 16.3166 12.2927 16.7071L9.934 19.0658C9.65599 19.3438 9.27892 19.5 8.88576 19.5C8.00528 19.5 7.56434 18.4355 8.18693 17.8129L9.9998 16L8.18693 14.1871C7.56434 13.5645 8.00528 12.5 8.88576 12.5Z" fill="white"/>
<path d="M25.5 24C27.7091 24 29.5 25.7909 29.5 28V32H21.5V28C21.5 25.7909 23.2909 24 25.5 24V24Z" fill="#030712"/>
<circle cx="25.5" cy="4" r="4" fill="#030712"/>
<circle cx="25.5" cy="4" r="1.5" fill="white"/>
</svg>
