<svg width="53" height="32" viewBox="0 0 53 32" fill="none" xmlns="http://www.w3.org/2000/svg">
<rect x="27" width="32" height="2" rx="1" transform="rotate(90 27 0)" fill="#030712"/>
<path d="M8.00002 16C8.00002 15.4477 8.44773 15 9.00002 15H41C41.5523 15 42 15.4477 42 16C42 16.5523 41.5523 17 41 17H9.00002C8.44773 17 8.00002 16.5523 8.00002 16Z" fill="#030712"/>
<path d="M41.3162 12.3161C40.8305 11.8304 41.1744 11 41.8613 11C42.2703 11 42.6625 11.1625 42.9516 11.4516L46.7929 15.2929C47.1834 15.6834 47.1834 16.3166 46.7929 16.7071L42.9516 20.5484C42.6625 20.8375 42.2703 21 41.8613 21C41.1744 21 40.8305 20.1695 41.3162 19.6839L44.2929 16.7071C44.6834 16.3166 44.6834 15.6834 44.2929 15.2929L41.3162 12.3161Z" fill="#030712"/>
<path d="M36.3162 12.3161C35.8305 11.8304 36.1744 11 36.8613 11C37.2703 11 37.6625 11.1625 37.9516 11.4516L41.7929 15.2929C42.1834 15.6834 42.1834 16.3166 41.7929 16.7071L37.9516 20.5484C37.6625 20.8375 37.2703 21 36.8613 21C36.1744 21 35.8305 20.1695 36.3162 19.6839L39.2929 16.7071C39.6834 16.3166 39.6834 15.6834 39.2929 15.2929L36.3162 12.3161Z" fill="#030712"/>
<path d="M46.3162 12.3161C45.8305 11.8304 46.1744 11 46.8613 11C47.2703 11 47.6625 11.1625 47.9516 11.4516L51.7929 15.2929C52.1834 15.6834 52.1834 16.3166 51.7929 16.7071L47.9516 20.5484C47.6625 20.8375 47.2703 21 46.8613 21C46.1744 21 45.8305 20.1695 46.3162 19.6839L49.2929 16.7071C49.6834 16.3166 49.6834 15.6834 49.2929 15.2929L46.3162 12.3161Z" fill="#030712"/>
<path d="M2.00002 11H10.1716C10.702 11 11.2107 11.2107 11.5858 11.5858L15.2929 15.2929C15.6834 15.6834 15.6834 16.3166 15.2929 16.7071L11.5858 20.4142C11.2107 20.7893 10.702 21 10.1716 21H2.00002C0.892942 21 0.338517 19.6615 1.12134 18.8787L3.29291 16.7071C3.68343 16.3166 3.68343 15.6834 3.29291 15.2929L1.12133 13.1213C0.338514 12.3385 0.892942 11 2.00002 11Z" fill="#030712"/>
<path d="M4.13391 12C4.36832 12 4.59314 12.0931 4.75889 12.2589L7.79292 15.2929C8.18344 15.6834 8.18344 16.3166 7.79292 16.7071L4.75889 19.7411C4.59314 19.9069 4.36832 20 4.13391 20C3.34647 20 2.95213 19.0479 3.50895 18.4911L5.31389 16.6863C5.69294 16.3073 5.69294 15.6927 5.31389 15.3137L3.50895 13.5089C2.95213 12.9521 3.34647 12 4.13391 12Z" fill="white"/>
<path d="M9.13416 12C9.3686 12 9.59344 12.0931 9.75921 12.2589L12.7932 15.2929C13.1837 15.6834 13.1837 16.3166 12.7932 16.7071L9.75921 19.7411C9.59344 19.9069 9.3686 20 9.13416 20C8.34662 20 7.95223 19.0478 8.50912 18.491L10.3139 16.6863C10.6929 16.3073 10.6929 15.6927 10.3139 15.3137L8.50911 13.509C7.95223 12.9522 8.34662 12 9.13416 12Z" fill="white"/>
<path d="M28 24C29.1046 24 30 24.8954 30 26V32H22V26C22 24.8954 22.8954 24 24 24H28Z" fill="#030712"/>
<path d="M30 28C31.1046 28 32 28.8954 32 30V32H20V30C20 28.8954 20.8954 28 22 28H30Z" fill="#030712"/>
<circle cx="26" cy="4" r="4" fill="#030712"/>
<circle cx="26" cy="16" r="3" fill="#030712"/>
<circle cx="26" cy="4" r="2" fill="white"/>
</svg>
