<svg width="50" height="40" viewBox="0 0 50 40" fill="none" xmlns="http://www.w3.org/2000/svg">
<rect x="27" width="40" height="4" rx="2" transform="rotate(90 27 0)" fill="#030712"/>
<rect x="5" y="18" width="44" height="4" rx="2" fill="#030712"/>
<path d="M1.77131 13C2.24015 13 2.68979 13.1862 3.02131 13.5178L8.08933 18.5858C8.87038 19.3668 8.87038 20.6332 8.08933 21.4142L3.02131 26.4822C2.68979 26.8138 2.24015 27 1.77131 27C0.196399 27 -0.59232 25.0959 0.521311 23.9822L4.50354 20L0.521311 16.0178C-0.59232 14.9041 0.1964 13 1.77131 13Z" fill="#030712"/>
<path d="M5.77131 13C6.24015 13 6.68979 13.1862 7.02131 13.5178L12.0893 18.5858C12.8704 19.3668 12.8704 20.6332 12.0893 21.4142L7.02131 26.4822C6.68979 26.8138 6.24015 27 5.77131 27C4.1964 27 3.40768 25.0959 4.52131 23.9822L8.50354 20L4.52131 16.0178C3.40768 14.9041 4.1964 13 5.77131 13Z" fill="#030712"/>
<path d="M9.77131 13C10.2402 13 10.6898 13.1862 11.0213 13.5178L16.0893 18.5858C16.8704 19.3668 16.8704 20.6332 16.0893 21.4142L11.0213 26.4822C10.6898 26.8138 10.2402 27 9.77131 27C8.1964 27 7.40768 25.0959 8.52131 23.9822L12.5035 20L8.52131 16.0178C7.40768 14.9041 8.1964 13 9.77131 13Z" fill="#030712"/>
<path d="M43.0916 13C43.5605 13 44.0101 13.1862 44.3416 13.5178L49.4096 18.5858C50.1907 19.3668 50.1907 20.6332 49.4096 21.4142L44.3416 26.4822C44.0101 26.8138 43.5605 27 43.0916 27C41.5167 27 40.728 25.0959 41.8416 23.9822L45.8239 20L41.8416 16.0178C40.728 14.9041 41.5167 13 43.0916 13Z" fill="#030712"/>
<path d="M27 32C28.1046 32 29 32.8954 29 34V40H21V34C21 32.8954 21.8954 32 23 32H27Z" fill="#030712"/>
<path d="M29 36C30.1046 36 31 36.8954 31 38V40H19V38C19 36.8954 19.8954 36 21 36H29Z" fill="#030712"/>
<circle cx="25" cy="4" r="4" fill="#030712"/>
</svg>
